<svg xmlns="http://www.w3.org/2000/svg" width="36" height="36" fill="none"><path fill="#fff" d="M36 18a18 18 0 1 1-36 0 18 18 0 0 1 36 0Z"/><path fill="#000" d="M18 4C10.28 4 4 10.35 4 18.15c0 4.66 2.26 9.03 6.1 11.68l.02.03c.03.03.05.05.08.05l.06.03c.5.34 1.18.2 1.51-.3.33-.5.2-1.2-.3-1.54l-.14-.1a12 12 0 0 1-5.13-9.85c0-6.57 5.3-11.92 11.8-11.92 6.5 0 11.8 5.35 11.8 11.92A12 12 0 0 1 24.67 28l-.14.08c-1.21.78-2.48.9-3.5.34a3.83 3.83 0 0 1-1.82-2.7 7.54 7.54 0 0 0 4.16-2.15 7.69 7.69 0 0 0-.02-10.81 7.54 7.54 0 0 0-10.72 0 7.75 7.75 0 0 0 0 10.84 7.59 7.59 0 0 0 4.32 2.17 6.2 6.2 0 0 0 3 4.63c.78.41 1.6.64 2.46.64 1.1 0 2.23-.36 3.33-1.06l.03-.03c.03-.03.06-.05.08-.05l.03-.03a14.25 14.25 0 0 0 6.1-11.68A14.06 14.06 0 0 0 18 4Zm-3.8 10.31a5.33 5.33 0 0 1 7.6 0 5.46 5.46 0 0 1 0 7.66 5.31 5.31 0 0 1-7.58 0 5.43 5.43 0 0 1-.02-7.66Z"/></svg>