<svg xmlns="http://www.w3.org/2000/svg" width="650" height="650" fill="none"><path fill="#fff" d="M650 325a325 325 0 1 1-650 0 325 325 0 0 1 650 0Z"/><path fill="#181818" d="M310 129h-5a199 199 0 0 0-190 218c-21 4-46 8-64 16l-11 7c-4 3-6 7-8 12v13c1 3 4 5 9 7l6 1h8c1 0 39-14 68-20a190 190 0 0 0 258 121c9-4 14-11 14-21-1-11-6-17-15-16l-14 3a152 152 0 0 1-207-96l47-11 7-1a96 96 0 0 0 161 28c14 20 33 30 58 29 50-2 76-49 74-99l-1-19c63-13 76-13 94-21l11-7c3-3 6-7 7-12 2-5 2-9 1-13-2-3-5-5-9-7l-6-1h-8l-99 25a204 204 0 0 0-186-136Zm0 39c64-1 125 43 149 106l-64 15c-5-19-16-32-36-46a99 99 0 0 0-64-19c-49 2-92 50-90 101v1l-53 12-1-9a159 159 0 0 1 159-161Zm-7 93c33 1 58 27 60 61a60 60 0 1 1-121 3 62 62 0 0 1 61-64Zm165 48 1 13c1 27-10 59-38 60-14 0-30-9-30-22l-1-34 68-17Z"/></svg>